<?xml version="1.0" encoding="UTF-8"?><svg id="Layer_1" xmlns="http://www.w3.org/2000/svg" viewBox="0 0 687.32 432.51"><defs><style>.cls-1{fill:#ffffff;}</style></defs><path class="cls-1" d="M147.21,419.88c-36.46,0-72.91,0-109.37,0-6.09,0-6.31-.37-5.26-6.51,5.96-35.19,16.06-69.18,29.43-102.25,19.65-48.59,44.73-94.05,78.37-134.46,40.09-48.17,86.95-87.95,144.61-113.92,22.24-10.02,45.38-16.66,69.88-18.81,49.84-4.37,97.46,4.71,143.73,22.51,51.27,19.73,97.51,48.09,140.39,82.13,10.81,8.58,21.34,17.49,31.39,26.96,2.4,2.26,3.24,3.45-.09,5.78-7.37,5.18-7.23,5.37-14.58,.14-33.29-23.67-68.46-43.75-107.31-57.04-31.24-10.69-63.27-15.61-96.19-13.44-29.37,1.93-56.95,10.73-83.01,24.2-45.21,23.37-75.8,59.7-93.99,106.77-8.53,22.08-13.44,45.02-16.24,68.52-2.54,21.37-2.58,42.76-1.65,64.14,.57,13.02,1.92,26.06,4.59,38.88q1.33,6.39-5.32,6.4c-36.46,0-72.91,0-109.37,0Z"/><path class="cls-1" d="M43.83,313.36c-.62-.25-1.38-.58-2.16-.87-8.72-3.17-17.43-6.4-26.19-9.46-2.6-.91-3.84-1.71-2.43-4.86,4.25-9.52,8.23-19.16,12.1-28.84,.97-2.42,2.18-2.39,4.15-1.66,9.17,3.39,18.33,6.8,27.56,10.03,2.61,.91,2.73,1.96,1.7,4.33-4.16,9.56-8.09,19.23-12.11,28.85-.48,1.16-.57,2.72-2.64,2.49Z"/><path class="cls-1" d="M309.75,410.26c-11.32-4.04-21.89-7.84-32.48-11.55-1.8-.63-2.64-1.68-2.9-3.52-1.53-11.15-2.52-22.34-2.98-34.1,10.13,3.68,19.89,7.25,29.68,10.73,1.51,.54,1.91,1.46,2.11,2.92,1.54,11.63,3.9,23.12,6.57,35.53Z"/><path class="cls-1" d="M127.39,130.77c.8,.65,1.45,1.14,2.06,1.68,5.38,4.69,10.71,9.44,16.15,14.05,1.72,1.46,2.12,2.42,.41,4.32-5.43,6.04-10.69,12.24-15.91,18.47-1.39,1.65-2.23,2.34-4.22,.53-5.9-5.34-12.03-10.44-18.11-15.59-1.27-1.08-2.15-1.89-.52-3.51,6.24-6.2,12.38-12.5,18.57-18.75,.44-.44,.99-.77,1.57-1.2Z"/><path class="cls-1" d="M299.38,305.72c-7.71-6.09-14.59-11.56-21.51-16.96-1.28-1-2.14-1.97-1.71-3.73,2.39-9.93,4.63-19.9,8.46-29.9,6.52,5.16,12.73,10.11,18.99,15.01,1.16,.91,1.84,1.85,1.45,3.37-2.62,10.27-4.45,20.7-5.67,32.22Z"/><path class="cls-1" d="M335.67,174.4c1.31,.04,1.67,1.13,2.19,1.9,3.34,4.96,6.55,10,9.94,14.93,1.13,1.64,1.16,2.73-.3,4.23-5,5.12-9.7,10.51-13.75,16.43-1.48,2.16-2.28,1.62-3.46-.21-3.62-5.57-7.36-11.06-11.03-16.6-.62-.93-1.35-1.75-.3-3.04,4.83-5.95,9.96-11.61,15.56-16.84,.35-.33,.8-.56,1.15-.81Z"/><path class="cls-1" d="M257.79,61.52c-.23,1.16-1.28,1.41-2.11,1.89-5.74,3.29-11.5,6.52-17.19,9.89-1.78,1.05-2.93,1.55-4.31-.72-3.26-5.36-6.74-10.6-10.33-15.76-1.31-1.88-.95-2.74,.9-3.73,6.11-3.29,12.17-6.69,18.25-10.03,.99-.54,1.99-1.32,2.94,.14,3.78,5.83,7.57,11.64,11.36,17.46,.18,.28,.33,.57,.49,.86Z"/><path class="cls-1" d="M484.62,40.57c.76-9.71,.79-9.8,10.36-6.64,5.32,1.76,10.51,3.9,15.78,5.83,1.72,.63,2.72,1.48,2.54,3.61-.4,4.61-.55,9.24-.75,13.87-.1,2.26-.55,3.3-3.27,2.22-7.52-2.99-15.13-5.75-22.77-8.4-2.23-.77-2.7-2.01-2.43-4.07,.27-2.13,.37-4.28,.55-6.42Z"/><path class="cls-1" d="M422.22,147.07c.38,2.09-1.15,2.15-2.08,2.45-6.96,2.23-13.7,5-20.25,8.2-2.01,.98-2.82,.57-3.43-1.49-1.12-3.81-1.99-7.79-3.8-11.27-2.59-5-1.13-7.32,3.91-8.82,5.55-1.65,11.02-3.61,16.4-5.75,2.82-1.12,3.76-.24,4.52,2.39,1.43,4.92,3.2,9.74,4.73,14.28Z"/><path class="cls-1" d="M483.8,133.93c1.06-12.84-1.89-11.86,11.3-10.57,4.93,.48,9.8,1.54,14.73,2.12,2.62,.31,3.73,1.21,3.38,4.06-.45,3.6-.59,7.26-.57,10.89,.02,3.35-1.54,3.82-4.36,3.15-6.46-1.54-13.07-2.42-19.66-2.48-4.57-.04-5.81-1.49-4.84-5.65,.22-.94,.03-1.98,.03-1.52Z"/><path class="cls-1" d="M364.81,32.09c-4.44,0-9.93,1.6-13.05-.43-3.4-2.22-3.14-8.32-4.88-12.57-1.21-2.96-.77-3.84,2.64-4.14,6.94-.62,13.88-.84,20.83-1.21,2.64-.14,3.86,.82,4.55,3.26,1.08,3.81,2.28,7.59,3.66,11.3,.95,2.54,.17,3.23-2.33,3.15-3.8-.12-7.61-.03-11.42-.03,0,.23,0,.46,0,.68Z"/></svg>